<?xml version="1.0" encoding="utf-8"?>
<!-- Generator: Adobe Illustrator 16.0.0, SVG Export Plug-In . SVG Version: 6.00 Build 0)  -->
<!DOCTYPE svg PUBLIC "-//W3C//DTD SVG 1.1//EN" "http://www.w3.org/Graphics/SVG/1.1/DTD/svg11.dtd">
<svg version="1.1" id="Layer_1" xmlns="http://www.w3.org/2000/svg" xmlns:xlink="http://www.w3.org/1999/xlink" x="0px" y="0px"
	 width="1420px" height="700px" viewBox="0 0 1420 700" enable-background="new 0 0 1420 700" xml:space="preserve">
<line fill="none" stroke="#DCDCDC" stroke-width="3" stroke-miterlimit="10" x1="60" y1="20" x2="40" y2="80"/>
<path fill="none" stroke="#DCDCDC" stroke-width="3" stroke-linecap="round" stroke-miterlimit="10" d="M141,40"/>
<path fill="none" stroke="#DCDCDC" stroke-width="3" stroke-linecap="round" stroke-miterlimit="10" d="M161,20"/>
<line fill="none" stroke="#DCDCDC" stroke-width="3" stroke-linecap="round" stroke-miterlimit="10" x1="200" y1="60" x2="180" y2="80"/>
<line fill="none" stroke="#DCDCDC" stroke-width="3" stroke-linecap="round" stroke-miterlimit="10" x1="160" y1="20" x2="141" y2="40"/>
<line fill="none" stroke="#DCDCDC" stroke-width="3" stroke-linecap="round" stroke-miterlimit="10" x1="200" y1="20" x2="141" y2="80"/>
<line fill="none" stroke="#DCDCDC" stroke-width="3" stroke-linecap="round" stroke-miterlimit="10" x1="289.5" y1="20" x2="289.5" y2="80"/>
<line fill="none" stroke="#DCDCDC" stroke-width="3" stroke-linecap="round" stroke-miterlimit="10" x1="159.5" y1="620" x2="159.5" y2="680"/>
<line fill="none" stroke="#DCDCDC" stroke-width="3" stroke-linecap="round" stroke-miterlimit="10" x1="179.5" y1="620" x2="179.5" y2="680"/>
<polyline fill="none" stroke="#DCDCDC" stroke-width="3" stroke-linecap="round" stroke-miterlimit="10" points="400,20 421,40 
	400,60 420,80 "/>
<polyline fill="none" stroke="#E6E6E6" stroke-width="3" stroke-linecap="round" stroke-miterlimit="10" points="500,281 520,260 
	540,281 560,261 "/>
<polyline fill="none" stroke="#E6E6E6" stroke-width="3" stroke-linecap="round" stroke-miterlimit="10" points="500,320 520,299 
	540,320 560,300 "/>
<polygon fill="none" stroke="#DCDCDC" stroke-width="3" stroke-miterlimit="10" points="530.255,29.442 509.57,50.128 530,70.558 
	550.43,50.128 "/>
<line fill="none" stroke="#DCDCDC" stroke-width="3" stroke-linecap="round" stroke-miterlimit="10" x1="680" y1="60" x2="621" y2="60"/>
<line fill="none" stroke="#DCDCDC" stroke-width="3" stroke-miterlimit="10" x1="400" y1="140" x2="380" y2="160"/>
<line fill="none" stroke="#DCDCDC" stroke-width="3" stroke-miterlimit="10" x1="420" y1="160" x2="400" y2="180"/>
<line fill="none" stroke="#DCDCDC" stroke-width="3" stroke-miterlimit="10" x1="440" y1="180" x2="420" y2="200"/>
<line fill="none" stroke="#DCDCDC" stroke-width="3" stroke-miterlimit="10" x1="420" y1="180" x2="400" y2="200"/>
<line fill="none" stroke="#DCDCDC" stroke-width="3" stroke-miterlimit="10" x1="400" y1="160" x2="380" y2="180"/>
<line fill="none" stroke="#DCDCDC" stroke-width="3" stroke-linecap="round" stroke-miterlimit="10" x1="530" y1="140" x2="530" y2="200"/>
<line fill="none" stroke="#DCDCDC" stroke-width="3" stroke-linecap="round" stroke-miterlimit="10" x1="560.001" y1="170" x2="500.001" y2="170"/>
<line fill="none" stroke="#E6E6E6" stroke-width="3" stroke-linecap="round" stroke-miterlimit="10" x1="680" y1="140" x2="620" y2="200"/>
<line fill="none" stroke="#DCDCDC" stroke-width="3" stroke-linecap="square" stroke-miterlimit="10" x1="760" y1="40" x2="760" y2="60"/>
<line fill="none" stroke="#DCDCDC" stroke-width="3" stroke-linecap="square" stroke-miterlimit="10" x1="780" y1="40" x2="780" y2="60"/>
<line fill="none" stroke="#DCDCDC" stroke-width="3" stroke-linecap="square" stroke-miterlimit="10" x1="900" y1="40" x2="880" y2="60"/>
<line fill="none" stroke="#DCDCDC" stroke-width="3" stroke-linecap="square" stroke-miterlimit="10" x1="1020" y1="160" x2="1000" y2="180"/>
<line fill="none" stroke="#DCDCDC" stroke-width="3" stroke-linecap="square" stroke-miterlimit="10" x1="780" y1="640" x2="760" y2="660"/>
<line fill="none" stroke="#E6E6E6" stroke-width="3" stroke-linecap="square" stroke-miterlimit="10" x1="60" y1="400" x2="40" y2="420"/>
<line fill="none" stroke="#DCDCDC" stroke-width="3" stroke-miterlimit="10" x1="1020" y1="40" x2="980" y2="80"/>
<line fill="none" stroke="#DCDCDC" stroke-width="3" stroke-miterlimit="10" x1="1040" y1="60" x2="1000" y2="20"/>
<line fill="none" stroke="#DCDCDC" stroke-width="3" stroke-linecap="round" stroke-miterlimit="10" x1="800" y1="200" x2="740" y2="140"/>
<line fill="none" stroke="#E6E6E6" stroke-width="3" stroke-linecap="round" stroke-miterlimit="10" x1="800" y1="260" x2="740" y2="320"/>
<line fill="none" stroke="#E6E6E6" stroke-width="3" stroke-linecap="round" stroke-miterlimit="10" x1="760" y1="320" x2="740" y2="260"/>
<line fill="none" stroke="#E6E6E6" stroke-width="3" stroke-miterlimit="10" x1="880" y1="140" x2="900" y2="160"/>
<line fill="none" stroke="#E6E6E6" stroke-width="3" stroke-miterlimit="10" x1="881" y1="180" x2="900" y2="200"/>
<line fill="none" stroke="#DCDCDC" stroke-width="3" stroke-linecap="round" stroke-miterlimit="10" x1="1120" y1="20" x2="1120" y2="80"/>
<line fill="none" stroke="#DCDCDC" stroke-width="3" stroke-linecap="round" stroke-miterlimit="10" x1="1260" y1="20" x2="1260" y2="80"/>
<line fill="none" stroke="#DCDCDC" stroke-width="3" stroke-linecap="round" stroke-miterlimit="10" x1="1260" y1="40" x2="1221" y2="40"/>
<line fill="none" stroke="#DCDCDC" stroke-width="3" stroke-linecap="round" stroke-miterlimit="10" x1="1260" y1="60" x2="1221" y2="60"/>
<path fill="none" stroke="#DCDCDC" stroke-width="3" stroke-linecap="round" stroke-miterlimit="10" d="M1371,20"/>
<line fill="none" stroke="#DCDCDC" stroke-width="3" stroke-miterlimit="10" x1="1121" y1="180" x2="1131" y2="200"/>
<line fill="none" stroke="#DCDCDC" stroke-width="3" stroke-miterlimit="10" x1="1101" y1="180" x2="1111" y2="200"/>
<line fill="none" stroke="#DCDCDC" stroke-width="3" stroke-miterlimit="10" x1="1141" y1="180" x2="1151" y2="200"/>
<line fill="none" stroke="#DCDCDC" stroke-width="3" stroke-miterlimit="10" x1="1141" y1="160" x2="1151" y2="180"/>
<line fill="none" stroke="#DCDCDC" stroke-width="3" stroke-miterlimit="10" x1="1121" y1="160" x2="1131" y2="180"/>
<line fill="none" stroke="#DCDCDC" stroke-width="3" stroke-miterlimit="10" x1="1101" y1="160" x2="1111" y2="180"/>
<line fill="none" stroke="#DCDCDC" stroke-width="3" stroke-miterlimit="10" x1="1101" y1="140" x2="1111" y2="160"/>
<line fill="none" stroke="#DCDCDC" stroke-width="3" stroke-miterlimit="10" x1="1121" y1="140" x2="1131" y2="160"/>
<line fill="none" stroke="#DCDCDC" stroke-width="3" stroke-miterlimit="10" x1="1141" y1="140" x2="1151" y2="160"/>
<line fill="none" stroke="#DCDCDC" stroke-width="3" stroke-linecap="round" stroke-miterlimit="10" x1="1280" y1="160" x2="1220" y2="180"/>
<line fill="none" stroke="#DCDCDC" stroke-width="3" stroke-linecap="round" stroke-miterlimit="10" x1="1360" y1="140" x2="1360" y2="200"/>
<line fill="none" stroke="#DCDCDC" stroke-width="3" stroke-linecap="round" stroke-miterlimit="10" x1="1341" y1="170" x2="1360" y2="170"/>
<line fill="none" stroke="#DCDCDC" stroke-width="3" stroke-linecap="round" stroke-miterlimit="10" x1="1341" y1="160" x2="1360" y2="160"/>
<line fill="none" stroke="#DCDCDC" stroke-width="3" stroke-linecap="round" stroke-miterlimit="10" x1="1341" y1="180" x2="1360" y2="180"/>
<line fill="none" stroke="#DCDCDC" stroke-width="3" stroke-linecap="round" stroke-miterlimit="10" x1="40" y1="260" x2="21" y2="319"/>
<line fill="none" stroke="#DCDCDC" stroke-width="3" stroke-linecap="round" stroke-miterlimit="10" x1="80" y1="260" x2="61" y2="319"/>
<line fill="none" stroke="#E6E6E6" stroke-width="3" stroke-linecap="round" stroke-miterlimit="10" x1="179.5" y1="280" x2="179.5" y2="300"/>
<line fill="none" stroke="#E6E6E6" stroke-width="3" stroke-linecap="round" stroke-miterlimit="10" x1="159.5" y1="260" x2="159.5" y2="320"/>
<line fill="none" stroke="#DCDCDC" stroke-width="3" stroke-linecap="round" stroke-miterlimit="10" x1="280" y1="260" x2="280" y2="320"/>
<line fill="none" stroke="#DCDCDC" stroke-width="3" stroke-linecap="round" stroke-miterlimit="10" x1="300" y1="260" x2="300" y2="320"/>
<line fill="none" stroke="#DCDCDC" stroke-width="3" stroke-linecap="round" stroke-miterlimit="10" x1="320" y1="280" x2="280" y2="280"/>
<line fill="none" stroke="#DCDCDC" stroke-width="3" stroke-linecap="round" stroke-miterlimit="10" x1="300" y1="300" x2="260" y2="300"/>
<line fill="none" stroke="#DCDCDC" stroke-width="3" stroke-linecap="round" stroke-miterlimit="10" x1="1000" y1="380" x2="1000" y2="440"/>
<line fill="none" stroke="#DCDCDC" stroke-width="3" stroke-linecap="round" stroke-miterlimit="10" x1="1020" y1="380" x2="1020" y2="420"/>
<line fill="none" stroke="#DCDCDC" stroke-width="3" stroke-linecap="round" stroke-miterlimit="10" x1="1040" y1="400" x2="980" y2="400"/>
<line fill="none" stroke="#DCDCDC" stroke-width="3" stroke-linecap="round" stroke-miterlimit="10" x1="1020" y1="420" x2="980" y2="420"/>
<line fill="none" stroke="#DCDCDC" stroke-width="3" stroke-linecap="round" stroke-miterlimit="10" x1="140" y1="400" x2="200" y2="380"/>
<line fill="none" stroke="#DCDCDC" stroke-width="3" stroke-linecap="round" stroke-miterlimit="10" x1="140" y1="440" x2="160" y2="380"/>
<line fill="none" stroke="#E6E6E6" stroke-width="3" stroke-linecap="round" stroke-miterlimit="10" x1="300" y1="380" x2="320" y2="440"/>
<line fill="none" stroke="#E6E6E6" stroke-width="3" stroke-linecap="round" stroke-miterlimit="10" x1="410" y1="260" x2="410" y2="320"/>
<line fill="none" stroke="#E6E6E6" stroke-width="3" stroke-linecap="round" stroke-miterlimit="10" x1="439.5" y1="290" x2="380.5" y2="290"/>
<line fill="none" stroke="#E6E6E6" stroke-width="3" stroke-linecap="round" stroke-miterlimit="10" x1="440" y1="260" x2="380" y2="320"/>
<line fill="none" stroke="#E6E6E6" stroke-width="3" stroke-linecap="round" stroke-miterlimit="10" x1="621" y1="300" x2="661" y2="320"/>
<line fill="none" stroke="#E6E6E6" stroke-width="3" stroke-linecap="round" stroke-miterlimit="10" x1="400" y1="380" x2="380" y2="440"/>
<line fill="none" stroke="#DCDCDC" stroke-width="3" stroke-linecap="round" stroke-miterlimit="10" x1="500" y1="400" x2="560" y2="400"/>
<line fill="none" stroke="#DCDCDC" stroke-width="3" stroke-linecap="round" stroke-miterlimit="10" x1="520" y1="400" x2="560" y2="440"/>
<path fill="none" stroke="#E6E6E6" stroke-width="3" stroke-linecap="round" stroke-miterlimit="10" d="M651,440"/>
<path fill="none" stroke="#E6E6E6" stroke-width="3" stroke-linecap="round" stroke-miterlimit="10" d="M651,380"/>
<line fill="none" stroke="#E6E6E6" stroke-width="3" stroke-linecap="round" stroke-miterlimit="10" x1="889.5" y1="420" x2="889.5" y2="400"/>
<line fill="none" stroke="#E6E6E6" stroke-width="3" stroke-linecap="round" stroke-miterlimit="10" x1="879.5" y1="420" x2="879.5" y2="400"/>
<line fill="none" stroke="#E6E6E6" stroke-width="3" stroke-linecap="round" stroke-miterlimit="10" x1="861" y1="440" x2="880" y2="420"/>
<line fill="none" stroke="#E6E6E6" stroke-width="3" stroke-linecap="round" stroke-miterlimit="10" x1="899.5" y1="420" x2="899.5" y2="400"/>
<line fill="none" stroke="#E6E6E6" stroke-width="3" stroke-linecap="round" stroke-miterlimit="10" x1="900" y1="400" x2="921" y2="380"/>
<line fill="none" stroke="#E6E6E6" stroke-width="3" stroke-linecap="round" stroke-miterlimit="10" x1="1140" y1="260" x2="1100" y2="300"/>
<line fill="none" stroke="#E6E6E6" stroke-width="3" stroke-linecap="round" stroke-miterlimit="10" x1="1160" y1="280" x2="1120" y2="320"/>
<polygon fill="none" stroke="#DCDCDC" stroke-width="3" stroke-miterlimit="10" points="1130.256,389.442 1109.57,410.127 
	1130,430.558 1150.43,410.127 "/>
<polygon fill="none" stroke="#E6E6E6" stroke-width="3" stroke-miterlimit="10" points="1361.825,269.442 1341.14,290.127 
	1361.569,310.558 1382,290.127 "/>
<polygon fill="none" stroke="#E6E6E6" stroke-width="3" stroke-miterlimit="10" points="1378.825,269.442 1358.14,290.127 
	1378.569,310.558 1399,290.127 "/>
<line fill="none" stroke="#E6E6E6" stroke-width="3" stroke-linecap="round" stroke-miterlimit="10" x1="1240" y1="380" x2="1240" y2="440"/>
<line fill="none" stroke="#E6E6E6" stroke-width="3" stroke-linecap="round" stroke-miterlimit="10" x1="1240" y1="380" x2="1280" y2="440"/>
<path fill="none" stroke="#DCDCDC" stroke-width="3" stroke-linecap="round" stroke-miterlimit="10" d="M1380,380c0,0,1,60-39,60"/>
<path fill="none" stroke="#DCDCDC" stroke-width="3" stroke-linecap="round" stroke-miterlimit="10" d="M1220,280.002
	c0,0,60-1,60,39"/>
<path fill="none" stroke="#DCDCDC" stroke-width="3" stroke-linecap="round" stroke-miterlimit="10" d="M1340,41c0,0,60-1,60,39"/>
<path fill="none" stroke="#DCDCDC" stroke-width="3" stroke-linecap="round" stroke-miterlimit="10" d="M1340,21.002
	c0,0,60-1.513,60,58.999"/>
<ellipse fill="none" stroke="#DCDCDC" stroke-width="3" stroke-linecap="round" stroke-miterlimit="10" cx="50.5" cy="170" rx="29.5" ry="30"/>
<ellipse fill="none" stroke="#DCDCDC" stroke-width="3" stroke-linecap="round" stroke-miterlimit="10" cx="30" cy="650" rx="10" ry="30"/>
<ellipse fill="none" stroke="#DCDCDC" stroke-width="3" stroke-linecap="round" stroke-miterlimit="10" cx="50" cy="650" rx="10" ry="30"/>
<ellipse fill="none" stroke="#DCDCDC" stroke-width="3" stroke-linecap="round" stroke-miterlimit="10" cx="70" cy="650" rx="10" ry="30"/>
<ellipse transform="matrix(0.7071 0.7071 -0.7071 0.7071 740.8831 -728.6501)" fill="none" stroke="#DCDCDC" stroke-width="3" stroke-linecap="round" stroke-miterlimit="10" cx="1250" cy="530" rx="10" ry="30"/>
<ellipse transform="matrix(-0.7071 0.7071 -0.7071 -0.7071 2508.6501 20.8831)" fill="none" stroke="#DCDCDC" stroke-width="3" stroke-linecap="round" stroke-miterlimit="10" cx="1250" cy="530" rx="10" ry="30"/>
<circle fill="none" stroke="#E6E6E6" stroke-width="3" stroke-linecap="round" stroke-miterlimit="10" cx="281" cy="420" r="20"/>
<circle fill="none" stroke="#E6E6E6" stroke-width="3" stroke-linecap="round" stroke-miterlimit="10" cx="410" cy="410" r="10"/>
<circle fill="none" stroke="#E6E6E6" stroke-width="3" stroke-linecap="round" stroke-miterlimit="10" cx="771" cy="409.625" r="20"/>
<circle fill="none" stroke="#E6E6E6" stroke-width="3" stroke-linecap="round" stroke-miterlimit="10" cx="650" cy="410" r="20"/>
<path fill="none" stroke="#E6E6E6" stroke-width="3" stroke-miterlimit="10" d="M1020,260c0,22.092-17.906,40-40,40"/>
<path fill="none" stroke="#DCDCDC" stroke-width="3" stroke-miterlimit="10" d="M320,620c0,33.138-26.859,60-60,60"/>
<path fill="none" stroke="#DCDCDC" stroke-width="3" stroke-miterlimit="10" d="M260,680c0-33.138,26.859-60,60-60"/>
<path fill="none" stroke="#DCDCDC" stroke-width="3" stroke-miterlimit="10" d="M260,620.001c33.138,0,60,26.859,60,60"/>
<path fill="none" stroke="#DCDCDC" stroke-width="3" stroke-miterlimit="10" d="M320,680.001c-33.138,0-60-26.859-60-60"/>
<path fill="none" stroke="#E6E6E6" stroke-width="3" stroke-miterlimit="10" d="M661,309.625c-11.046,0-20-8.953-20-20
	s8.954-20,20-20"/>
<circle fill="none" stroke="#E6E6E6" stroke-width="3" stroke-linecap="round" stroke-miterlimit="10" cx="771" cy="410" r="10"/>
<circle fill="none" stroke="#E6E6E6" stroke-width="3" stroke-linecap="round" stroke-miterlimit="10" cx="651" cy="169.625" r="20"/>
<rect x="20" y="20" fill="none" stroke="#DCDCDC" stroke-width="3" stroke-miterlimit="10" width="60" height="60"/>
<rect x="140" y="20" fill="none" stroke="#DCDCDC" stroke-width="3" stroke-miterlimit="10" width="60" height="60"/>
<rect x="260" y="20" fill="none" stroke="#DCDCDC" stroke-width="3" stroke-miterlimit="10" width="60" height="60"/>
<rect x="380" y="20" fill="none" stroke="#DCDCDC" stroke-width="3" stroke-miterlimit="10" width="60" height="60"/>
<rect x="500" y="20" fill="none" stroke="#DCDCDC" stroke-width="3" stroke-miterlimit="10" width="60" height="60"/>
<rect x="620" y="20" fill="none" stroke="#DCDCDC" stroke-width="3" stroke-miterlimit="10" width="60" height="60"/>
<rect x="740" y="20" fill="none" stroke="#DCDCDC" stroke-width="3" stroke-miterlimit="10" width="60" height="60"/>
<rect x="860" y="20" fill="none" stroke="#DCDCDC" stroke-width="3" stroke-miterlimit="10" width="60" height="60"/>
<rect x="980" y="20" fill="none" stroke="#DCDCDC" stroke-width="3" stroke-miterlimit="10" width="60" height="60"/>
<rect x="1100" y="20" fill="none" stroke="#DCDCDC" stroke-width="3" stroke-miterlimit="10" width="60" height="60"/>
<rect x="1220" y="20" fill="none" stroke="#DCDCDC" stroke-width="3" stroke-miterlimit="10" width="60" height="60"/>
<rect x="1340" y="20" fill="none" stroke="#DCDCDC" stroke-width="3" stroke-miterlimit="10" width="60" height="60"/>
<rect x="20" y="140" fill="none" stroke="#DCDCDC" stroke-width="3" stroke-miterlimit="10" width="60" height="60"/>
<rect x="140" y="620" fill="none" stroke="#DCDCDC" stroke-width="3" stroke-miterlimit="10" width="60" height="60"/>
<rect x="260" y="620" fill="none" stroke="#DCDCDC" stroke-width="3" stroke-miterlimit="10" width="60" height="60"/>
<rect x="380" y="140" fill="none" stroke="#DCDCDC" stroke-width="3" stroke-miterlimit="10" width="60" height="60"/>
<rect x="500" y="140" fill="none" stroke="#DCDCDC" stroke-width="3" stroke-miterlimit="10" width="60" height="60"/>
<rect x="620" y="140" fill="none" stroke="#E6E6E6" stroke-width="3" stroke-miterlimit="10" width="60" height="60"/>
<rect x="740" y="140" fill="none" stroke="#DCDCDC" stroke-width="3" stroke-miterlimit="10" width="60" height="60"/>
<rect x="860" y="140" fill="none" stroke="#E6E6E6" stroke-width="3" stroke-miterlimit="10" width="60" height="60"/>
<rect x="980" y="140" fill="none" stroke="#DCDCDC" stroke-width="3" stroke-miterlimit="10" width="60" height="60"/>
<rect x="1100" y="140" fill="none" stroke="#DCDCDC" stroke-width="3" stroke-miterlimit="10" width="60" height="60"/>
<rect x="1220" y="140" fill="none" stroke="#DCDCDC" stroke-width="3" stroke-miterlimit="10" width="60" height="60"/>
<rect x="1340" y="140" fill="none" stroke="#DCDCDC" stroke-width="3" stroke-miterlimit="10" width="60" height="60"/>
<rect x="20" y="260" fill="none" stroke="#DCDCDC" stroke-width="3" stroke-miterlimit="10" width="60" height="60"/>
<rect x="140" y="260" fill="none" stroke="#E6E6E6" stroke-width="3" stroke-miterlimit="10" width="60" height="60"/>
<rect x="260" y="260" fill="none" stroke="#DCDCDC" stroke-width="3" stroke-miterlimit="10" width="60" height="60"/>
<rect x="380" y="260" fill="none" stroke="#E6E6E6" stroke-width="3" stroke-miterlimit="10" width="60" height="60"/>
<rect x="620" y="260" fill="none" stroke="#E6E6E6" stroke-width="3" stroke-miterlimit="10" width="60" height="60"/>
<rect x="740" y="260" fill="none" stroke="#E6E6E6" stroke-width="3" stroke-miterlimit="10" width="60" height="60"/>
<rect x="860" y="260" fill="none" stroke="#E6E6E6" stroke-width="3" stroke-miterlimit="10" width="60" height="60"/>
<rect x="880" y="280" fill="none" stroke="#E6E6E6" stroke-width="3" stroke-miterlimit="10" width="20" height="20"/>
<rect x="1360" y="640" fill="none" stroke="#DCDCDC" stroke-width="3" stroke-miterlimit="10" width="20" height="20"/>
<rect x="980" y="260" fill="none" stroke="#E6E6E6" stroke-width="3" stroke-miterlimit="10" width="60" height="60"/>
<rect x="1100" y="260" fill="none" stroke="#E6E6E6" stroke-width="3" stroke-miterlimit="10" width="60" height="60"/>
<rect x="1220" y="260" fill="none" stroke="#DCDCDC" stroke-width="3" stroke-miterlimit="10" width="60" height="60"/>
<rect x="1340" y="260" fill="none" stroke="#E6E6E6" stroke-width="3" stroke-miterlimit="10" width="60" height="60"/>
<rect x="20" y="380" fill="none" stroke="#E6E6E6" stroke-width="3" stroke-miterlimit="10" width="60" height="60"/>
<rect x="140" y="380" fill="none" stroke="#DCDCDC" stroke-width="3" stroke-miterlimit="10" width="60" height="60"/>
<rect x="260" y="380" fill="none" stroke="#E6E6E6" stroke-width="3" stroke-miterlimit="10" width="60" height="60"/>
<rect x="380" y="380" fill="none" stroke="#E6E6E6" stroke-width="3" stroke-miterlimit="10" width="60" height="60"/>
<rect x="500" y="380" fill="none" stroke="#DCDCDC" stroke-width="3" stroke-miterlimit="10" width="60" height="60"/>
<rect x="620" y="380" fill="none" stroke="#E6E6E6" stroke-width="3" stroke-miterlimit="10" width="60" height="60"/>
<rect x="740" y="380" fill="none" stroke="#E6E6E6" stroke-width="3" stroke-miterlimit="10" width="60" height="60"/>
<rect x="860" y="380" fill="none" stroke="#E6E6E6" stroke-width="3" stroke-miterlimit="10" width="60" height="60"/>
<rect x="980" y="380" fill="none" stroke="#DCDCDC" stroke-width="3" stroke-miterlimit="10" width="60" height="60"/>
<rect x="1100" y="380" fill="none" stroke="#DCDCDC" stroke-width="3" stroke-miterlimit="10" width="60" height="60"/>
<rect x="1220" y="380" fill="none" stroke="#E6E6E6" stroke-width="3" stroke-miterlimit="10" width="60" height="60"/>
<rect x="1340" y="380" fill="none" stroke="#DCDCDC" stroke-width="3" stroke-miterlimit="10" width="60" height="60"/>
<rect x="500" y="260" fill="none" stroke="#E6E6E6" stroke-width="3" stroke-miterlimit="10" width="60" height="60"/>
<polyline fill="none" stroke="#E6E6E6" stroke-width="3" stroke-linecap="round" stroke-miterlimit="10" points="520,521 520,500 
	540,540 560,540 "/>
<polyline fill="none" stroke="#E6E6E6" stroke-width="3" stroke-linecap="round" stroke-miterlimit="10" points="500,520 520,520 
	540,560 540,540 "/>
<path fill="none" stroke="#DCDCDC" stroke-width="3" stroke-linecap="square" stroke-miterlimit="10" d="M40,660"/>
<line fill="none" stroke="#E6E6E6" stroke-width="3" stroke-linecap="round" stroke-miterlimit="10" x1="760" y1="560" x2="740" y2="500"/>
<line fill="none" stroke="#E6E6E6" stroke-width="3" stroke-linecap="round" stroke-miterlimit="10" x1="780" y1="560" x2="760" y2="500"/>
<line fill="none" stroke="#E6E6E6" stroke-width="3" stroke-linecap="round" stroke-miterlimit="10" x1="800" y1="560" x2="780" y2="500"/>
<line fill="none" stroke="#DCDCDC" stroke-width="3" stroke-linecap="round" stroke-miterlimit="10" x1="60" y1="540" x2="21" y2="559"/>
<line fill="none" stroke="#DCDCDC" stroke-width="3" stroke-linecap="round" stroke-miterlimit="10" x1="60" y1="521" x2="21" y2="540"/>
<line fill="none" stroke="#DCDCDC" stroke-width="3" stroke-linecap="round" stroke-miterlimit="10" x1="60" y1="501" x2="21" y2="520"/>
<line fill="none" stroke="#DCDCDC" stroke-width="3" stroke-linecap="round" stroke-miterlimit="10" x1="60" y1="500" x2="61" y2="559"/>
<line fill="none" stroke="#DCDCDC" stroke-width="3" stroke-linecap="round" stroke-miterlimit="10" x1="180" y1="520" x2="180" y2="540"/>
<line fill="none" stroke="#DCDCDC" stroke-width="3" stroke-linecap="round" stroke-miterlimit="10" x1="160" y1="540" x2="160" y2="560"/>
<line fill="none" stroke="#DCDCDC" stroke-width="3" stroke-linecap="round" stroke-miterlimit="10" x1="160" y1="500" x2="160" y2="520"/>
<line fill="none" stroke="#DCDCDC" stroke-width="3" stroke-linecap="round" stroke-miterlimit="10" x1="280" y1="520" x2="280" y2="560"/>
<line fill="none" stroke="#DCDCDC" stroke-width="3" stroke-linecap="round" stroke-miterlimit="10" x1="300" y1="500" x2="300" y2="540"/>
<line fill="none" stroke="#DCDCDC" stroke-width="3" stroke-linecap="round" stroke-miterlimit="10" x1="320" y1="520" x2="280" y2="520"/>
<line fill="none" stroke="#DCDCDC" stroke-width="3" stroke-linecap="round" stroke-miterlimit="10" x1="300" y1="540" x2="260" y2="540"/>
<line fill="none" stroke="#DCDCDC" stroke-width="3" stroke-linecap="round" stroke-miterlimit="10" x1="1000" y1="620" x2="1000" y2="680"/>
<line fill="none" stroke="#DCDCDC" stroke-width="3" stroke-linecap="round" stroke-miterlimit="10" x1="1020" y1="620" x2="1020" y2="640"/>
<line fill="none" stroke="#DCDCDC" stroke-width="3" stroke-linecap="round" stroke-miterlimit="10" x1="1040" y1="640" x2="980" y2="640"/>
<line fill="none" stroke="#DCDCDC" stroke-width="3" stroke-linecap="round" stroke-miterlimit="10" x1="1000" y1="660" x2="980" y2="660"/>
<line fill="none" stroke="#DCDCDC" stroke-width="3" stroke-linecap="round" stroke-miterlimit="10" x1="140" y1="160" x2="200" y2="140"/>
<line fill="none" stroke="#DCDCDC" stroke-width="3" stroke-linecap="round" stroke-miterlimit="10" x1="140" y1="200" x2="160" y2="140"/>
<line fill="none" stroke="#DCDCDC" stroke-width="3" stroke-linecap="round" stroke-miterlimit="10" x1="320" y1="180" x2="260" y2="200"/>
<line fill="none" stroke="#DCDCDC" stroke-width="3" stroke-linecap="round" stroke-miterlimit="10" x1="410" y1="500" x2="410" y2="560"/>
<line fill="none" stroke="#DCDCDC" stroke-width="3" stroke-linecap="round" stroke-miterlimit="10" x1="439.5" y1="540" x2="380.5" y2="540"/>
<line fill="none" stroke="#DCDCDC" stroke-width="3" stroke-linecap="round" stroke-miterlimit="10" x1="440" y1="520" x2="380" y2="520"/>
<line fill="none" stroke="#DCDCDC" stroke-width="3" stroke-linecap="round" stroke-miterlimit="10" x1="500" y1="660" x2="560" y2="660"/>
<line fill="none" stroke="#DCDCDC" stroke-width="3" stroke-linecap="round" stroke-miterlimit="10" x1="500" y1="640" x2="560" y2="640"/>
<line fill="none" stroke="#DCDCDC" stroke-width="3" stroke-linecap="round" stroke-miterlimit="10" x1="520" y1="620" x2="560" y2="640"/>
<line fill="none" stroke="#DCDCDC" stroke-width="3" stroke-linecap="round" stroke-miterlimit="10" x1="500" y1="660" x2="540" y2="680"/>
<path fill="none" stroke="#DCDCDC" stroke-width="3" stroke-linecap="round" stroke-miterlimit="10" d="M651,680"/>
<path fill="none" stroke="#DCDCDC" stroke-width="3" stroke-linecap="round" stroke-miterlimit="10" d="M651,620"/>
<line fill="none" stroke="#DCDCDC" stroke-width="3" stroke-linecap="round" stroke-miterlimit="10" x1="1140" y1="520" x2="1100" y2="560"/>
<line fill="none" stroke="#DCDCDC" stroke-width="3" stroke-linecap="round" stroke-miterlimit="10" x1="1140" y1="500" x2="1100" y2="540"/>
<line fill="none" stroke="#DCDCDC" stroke-width="3" stroke-linecap="round" stroke-miterlimit="10" x1="1160" y1="520" x2="1120" y2="560"/>
<polygon fill="none" stroke="#DCDCDC" stroke-width="3" stroke-miterlimit="10" points="1130.256,620 1109.57,640.686 1130,661.116 
	1150.43,640.686 "/>
<polygon fill="none" stroke="#DCDCDC" stroke-width="3" stroke-miterlimit="10" points="1130.256,638.884 1109.57,659.569 1130,680 
	1150.43,659.569 "/>
<polygon fill="none" stroke="#DCDCDC" stroke-width="3" stroke-miterlimit="10" points="1361.825,518.884 1341.14,539.569 
	1361.569,560 1382,539.569 "/>
<polygon fill="none" stroke="#DCDCDC" stroke-width="3" stroke-miterlimit="10" points="1379.825,500 1359.14,520.686 
	1379.569,541.116 1400,520.686 "/>
<polygon fill="none" stroke="#DCDCDC" stroke-width="3" stroke-miterlimit="10" points="1379.825,518.884 1359.14,539.569 
	1379.569,560 1400,539.569 "/>
<polygon fill="none" stroke="#DCDCDC" stroke-width="3" stroke-miterlimit="10" points="1360.686,500 1340,520.686 1360.43,541.116 
	1380.86,520.686 "/>
<path fill="none" stroke="#DCDCDC" stroke-width="3" stroke-linecap="round" stroke-miterlimit="10" d="M1259.998,620
	c0,0,1,60-39,60"/>
<path fill="none" stroke="#DCDCDC" stroke-width="3" stroke-linecap="round" stroke-miterlimit="10" d="M1239.999,620
	c0,0,0.513,30.768-19.999,30.768"/>
<circle fill="none" stroke="#DCDCDC" stroke-width="3" stroke-linecap="round" stroke-miterlimit="10" cx="280" cy="161" r="20"/>
<circle fill="none" stroke="#DCDCDC" stroke-width="3" stroke-linecap="round" stroke-miterlimit="10" cx="410" cy="650" r="10"/>
<circle fill="none" stroke="#DCDCDC" stroke-width="3" stroke-linecap="round" stroke-miterlimit="10" cx="410" cy="630" r="10"/>
<circle fill="none" stroke="#DCDCDC" stroke-width="3" stroke-linecap="round" stroke-miterlimit="10" cx="410" cy="670" r="10"/>
<circle fill="none" stroke="#DCDCDC" stroke-width="3" stroke-linecap="round" stroke-miterlimit="10" cx="880" cy="660" r="20"/>
<circle fill="none" stroke="#DCDCDC" stroke-width="3" stroke-linecap="round" stroke-miterlimit="10" cx="900" cy="640" r="20"/>
<circle fill="none" stroke="#DCDCDC" stroke-width="3" stroke-linecap="round" stroke-miterlimit="10" cx="650" cy="650" r="20"/>
<circle fill="none" stroke="#DCDCDC" stroke-width="3" stroke-linecap="round" stroke-miterlimit="10" cx="660" cy="640" r="20"/>
<circle fill="none" stroke="#DCDCDC" stroke-width="3" stroke-linecap="round" stroke-miterlimit="10" cx="640" cy="660" r="20"/>
<path fill="none" stroke="#DCDCDC" stroke-width="3" stroke-miterlimit="10" d="M1020,500c0,22.092-17.906,40-40,40"/>
<path fill="none" stroke="#DCDCDC" stroke-width="3" stroke-miterlimit="10" d="M1000,560c0-22.092,17.906-40,40-40"/>
<path fill="none" stroke="#DCDCDC" stroke-width="3" stroke-miterlimit="10" d="M620,500c16.569,0,30,13.43,30,30s-13.431,30-30,30"
	/>
<circle fill="none" stroke="#DCDCDC" stroke-width="3" stroke-linecap="round" stroke-miterlimit="10" cx="870" cy="630" r="10"/>
<circle fill="none" stroke="#DCDCDC" stroke-width="3" stroke-linecap="round" stroke-miterlimit="10" cx="910" cy="670" r="10"/>
<rect x="20" y="500" fill="none" stroke="#DCDCDC" stroke-width="3" stroke-miterlimit="10" width="60" height="60"/>
<rect x="140" y="500" fill="none" stroke="#DCDCDC" stroke-width="3" stroke-miterlimit="10" width="60" height="60"/>
<rect x="260" y="500" fill="none" stroke="#DCDCDC" stroke-width="3" stroke-miterlimit="10" width="60" height="60"/>
<rect x="380" y="500" fill="none" stroke="#DCDCDC" stroke-width="3" stroke-miterlimit="10" width="60" height="60"/>
<rect x="620" y="500" fill="none" stroke="#DCDCDC" stroke-width="3" stroke-miterlimit="10" width="60" height="60"/>
<rect x="740" y="500" fill="none" stroke="#E6E6E6" stroke-width="3" stroke-miterlimit="10" width="60" height="60"/>
<rect x="860" y="500" fill="none" stroke="#DCDCDC" stroke-width="3" stroke-miterlimit="10" width="60" height="60"/>
<rect x="900" y="540" fill="none" stroke="#DCDCDC" stroke-width="3" stroke-miterlimit="10" width="20" height="20"/>
<rect x="860" y="500" fill="none" stroke="#DCDCDC" stroke-width="3" stroke-miterlimit="10" width="20" height="20"/>
<rect x="980" y="500" fill="none" stroke="#DCDCDC" stroke-width="3" stroke-miterlimit="10" width="60" height="60"/>
<rect x="1100" y="500" fill="none" stroke="#DCDCDC" stroke-width="3" stroke-miterlimit="10" width="60" height="60"/>
<rect x="1220" y="500" fill="none" stroke="#DCDCDC" stroke-width="3" stroke-miterlimit="10" width="60" height="60"/>
<rect x="1340" y="500" fill="none" stroke="#DCDCDC" stroke-width="3" stroke-miterlimit="10" width="60" height="60"/>
<rect x="20" y="620" fill="none" stroke="#DCDCDC" stroke-width="3" stroke-miterlimit="10" width="60" height="60"/>
<rect x="140" y="140" fill="none" stroke="#DCDCDC" stroke-width="3" stroke-miterlimit="10" width="60" height="60"/>
<rect x="260" y="140" fill="none" stroke="#DCDCDC" stroke-width="3" stroke-miterlimit="10" width="60" height="60"/>
<rect x="380" y="620" fill="none" stroke="#DCDCDC" stroke-width="3" stroke-miterlimit="10" width="60" height="60"/>
<rect x="500" y="620" fill="none" stroke="#DCDCDC" stroke-width="3" stroke-miterlimit="10" width="60" height="60"/>
<rect x="620" y="620" fill="none" stroke="#DCDCDC" stroke-width="3" stroke-miterlimit="10" width="60" height="60"/>
<rect x="740" y="620" fill="none" stroke="#DCDCDC" stroke-width="3" stroke-miterlimit="10" width="60" height="60"/>
<rect x="860" y="620" fill="none" stroke="#DCDCDC" stroke-width="3" stroke-miterlimit="10" width="60" height="60"/>
<rect x="980" y="620" fill="none" stroke="#DCDCDC" stroke-width="3" stroke-miterlimit="10" width="60" height="60"/>
<rect x="1100" y="620" fill="none" stroke="#DCDCDC" stroke-width="3" stroke-miterlimit="10" width="60" height="60"/>
<rect x="1220" y="620" fill="none" stroke="#DCDCDC" stroke-width="3" stroke-miterlimit="10" width="60" height="60"/>
<rect x="1340" y="620" fill="none" stroke="#DCDCDC" stroke-width="3" stroke-miterlimit="10" width="60" height="60"/>
<rect x="500" y="500" fill="none" stroke="#E6E6E6" stroke-width="3" stroke-miterlimit="10" width="60" height="60"/>
</svg>
